<svg width="1024" height="1024" viewBox="0 0 1024 1024" fill="none" xmlns="http://www.w3.org/2000/svg">
  <rect width="1024" height="1024" rx="224" fill="url(#bg)"/>
  <rect x="88" y="88" width="848" height="848" rx="176" fill="url(#panel)" fill-opacity="0.92"/>
  <rect x="160" y="184" width="704" height="656" rx="132" fill="#15272D"/>
  <rect x="208" y="248" width="608" height="168" rx="84" fill="url(#display)"/>
  <path d="M278 332H748" stroke="white" stroke-opacity="0.08" stroke-width="8" stroke-linecap="round"/>
  <path d="M286 330C318 330 318 250 362 250C406 250 406 410 450 410C494 410 494 250 538 250C582 250 582 330 614 330" stroke="#69D0C1" stroke-width="30" stroke-linecap="round" stroke-linejoin="round"/>
  <path d="M648 330H742" stroke="#F4FBFA" stroke-width="26" stroke-linecap="round"/>
  <g filter="url(#shadow)">
    <rect x="208" y="468" width="292" height="200" rx="72" fill="url(#button)"/>
    <path d="M310 568H398" stroke="#F5FBFA" stroke-width="28" stroke-linecap="round"/>
    <path d="M326 612H382" stroke="#F5FBFA" stroke-width="28" stroke-linecap="round"/>
  </g>
  <g filter="url(#shadow)">
    <rect x="524" y="468" width="292" height="200" rx="72" fill="#EEF4F2"/>
    <path d="M608 568H732" stroke="#1B3035" stroke-width="28" stroke-linecap="round"/>
  </g>
  <rect x="208" y="716" width="608" height="40" rx="20" fill="#263E44"/>
  <rect x="208" y="716" width="332" height="40" rx="20" fill="url(#range)"/>
  <circle cx="540" cy="736" r="30" fill="#69D0C1" stroke="white" stroke-width="10"/>
  <circle cx="736" cy="736" r="30" fill="#E07A5F" stroke="white" stroke-width="10"/>
  <defs>
    <filter id="shadow" x="168" y="440" width="688" height="256" filterUnits="userSpaceOnUse" color-interpolation-filters="sRGB">
      <feFlood flood-opacity="0" result="BackgroundImageFix"/>
      <feColorMatrix in="SourceAlpha" type="matrix" values="0 0 0 0 0 0 0 0 0 0 0 0 0 0 0 0 0 0 127 0" result="hardAlpha"/>
      <feOffset dy="12"/>
      <feGaussianBlur stdDeviation="20"/>
      <feComposite in2="hardAlpha" operator="out"/>
      <feColorMatrix type="matrix" values="0 0 0 0 0.071 0 0 0 0 0.145 0 0 0 0 0.162 0 0 0 0.16 0"/>
      <feBlend mode="normal" in2="BackgroundImageFix" result="effect1_dropShadow_0_1"/>
      <feBlend mode="normal" in="SourceGraphic" in2="effect1_dropShadow_0_1" result="shape"/>
    </filter>
    <linearGradient id="bg" x1="96" y1="76" x2="896" y2="948" gradientUnits="userSpaceOnUse">
      <stop stop-color="#DFF2EC"/>
      <stop offset="0.56" stop-color="#F6F8F6"/>
      <stop offset="1" stop-color="#F0E2DC"/>
    </linearGradient>
    <linearGradient id="panel" x1="168" y1="136" x2="876" y2="932" gradientUnits="userSpaceOnUse">
      <stop stop-color="white" stop-opacity="0.94"/>
      <stop offset="1" stop-color="#F5F8F7" stop-opacity="0.88"/>
    </linearGradient>
    <linearGradient id="display" x1="208" y1="248" x2="816" y2="416" gradientUnits="userSpaceOnUse">
      <stop stop-color="#1B2F35"/>
      <stop offset="1" stop-color="#23464E"/>
    </linearGradient>
    <linearGradient id="button" x1="208" y1="468" x2="500" y2="668" gradientUnits="userSpaceOnUse">
      <stop stop-color="#1D9789"/>
      <stop offset="1" stop-color="#11756C"/>
    </linearGradient>
    <linearGradient id="range" x1="208" y1="716" x2="540" y2="756" gradientUnits="userSpaceOnUse">
      <stop stop-color="#59C9B8"/>
      <stop offset="1" stop-color="#E2A08B"/>
    </linearGradient>
  </defs>
</svg>
