<svg width="1024" height="1024" viewBox="0 0 1024 1024" fill="none" xmlns="http://www.w3.org/2000/svg">
  <rect width="1024" height="1024" rx="232" fill="url(#bg)"/>
  <rect x="64" y="64" width="896" height="896" rx="208" fill="url(#surface)"/>
  <path d="M92 544C148 544 164 344 220 344C276 344 292 680 348 680C404 680 420 344 476 344C532 344 548 680 604 680C660 680 676 344 732 344C788 344 804 544 860 544C893 544 915 544 932 544" stroke="url(#waveGlow)" stroke-width="112" stroke-linecap="round" stroke-linejoin="round" opacity="0.22"/>
  <path d="M92 512C148 512 164 312 220 312C276 312 292 712 348 712C404 712 420 312 476 312C532 312 548 712 604 712C660 712 676 312 732 312C788 312 804 512 860 512C893 512 915 512 932 512" stroke="url(#wave)" stroke-width="72" stroke-linecap="round" stroke-linejoin="round"/>
  <circle cx="512" cy="512" r="412" stroke="white" stroke-opacity="0.08" stroke-width="10"/>
  <defs>
    <linearGradient id="bg" x1="0" y1="0" x2="1024" y2="1024" gradientUnits="userSpaceOnUse">
      <stop stop-color="#E5F5F0"/>
      <stop offset="0.45" stop-color="#F6F7F4"/>
      <stop offset="1" stop-color="#F2E4DD"/>
    </linearGradient>
    <linearGradient id="surface" x1="120" y1="108" x2="900" y2="938" gradientUnits="userSpaceOnUse">
      <stop stop-color="#132A31"/>
      <stop offset="1" stop-color="#0A171B"/>
    </linearGradient>
    <linearGradient id="wave" x1="92" y1="312" x2="932" y2="712" gradientUnits="userSpaceOnUse">
      <stop stop-color="#77E2D2"/>
      <stop offset="0.5" stop-color="#F7F8F5"/>
      <stop offset="1" stop-color="#FF9B7E"/>
    </linearGradient>
    <linearGradient id="waveGlow" x1="92" y1="312" x2="932" y2="712" gradientUnits="userSpaceOnUse">
      <stop stop-color="#5BD6C3"/>
      <stop offset="1" stop-color="#F28B6A"/>
    </linearGradient>
  </defs>
</svg>
